<?xml version="1.0" encoding="UTF-8"?>
<!DOCTYPE svg PUBLIC "-//W3C//DTD SVG 1.1//EN" "http://www.w3.org/Graphics/SVG/1.1/DTD/svg11.dtd">
<svg version="1.1" xmlns="http://www.w3.org/2000/svg" xmlns:xlink="http://www.w3.org/1999/xlink" x="0" y="0" width="1024" height="1024" viewBox="0, 0, 1024, 1024">
  <g id="Layer_1">
    <path d="M512,70.174 L896,290.974 L512,512 L128,290.974 z" fill="#299199"/>
    <path d="M128,733.026 L128,290.974 L512.003,511.997 L512,953.826 z" fill="#CD366F"/>
    <path d="M896.003,733.026 L896.003,290.974 L512,511.997 L512.003,953.826 z" fill="#613F92"/>
    <path d="M512.008,144 L832.008,328 L832.008,476.031 L640,586.759 L640.016,806.572 L512,880.166 L192,696.166 L192,328.166 L512,144.166 M512.008,291.651 L512.012,291.703 L320.008,402.231 L320.008,622.128 L512.008,732.539 L512.008,512.667 L704.008,402.051 L512.008,291.651 z" fill="#FFFFFF" fill-opacity="0.603"/>
    <path d="M512.003,511.997 L128,733.026 L512.003,953.826 L512.003,511.997 z" fill="#000000" fill-opacity="0.08"/>
    <path d="M512,512.487 L512,70.174 L128,290.974 L512,512.487 z" fill="#000000" fill-opacity="0.08"/>
    <path d="M896.003,290.974 L896.003,733.026 L512.008,512.667 L896.003,290.974 z" fill="#000000" fill-opacity="0.08"/>
  </g>
</svg>
