<?xml version="1.0" encoding="UTF-8"?>
<!DOCTYPE svg PUBLIC "-//W3C//DTD SVG 1.1//EN" "http://www.w3.org/Graphics/SVG/1.1/DTD/svg11.dtd">
<svg version="1.1" xmlns="http://www.w3.org/2000/svg" xmlns:xlink="http://www.w3.org/1999/xlink" x="0" y="0" width="1024" height="1024" viewBox="0, 0, 1024, 1024">
  <g id="bg" display="none">
    <path d="M-0,0 L1024,0 L1024,1024 L-0,1024 L-0,0 z" fill="#202344" display="none"/>
  </g>
  <g id="stars">
    <path d="M894.9,218.564 C892.691,218.564 890.9,216.774 890.9,214.564 C890.9,212.355 892.691,210.564 894.9,210.564 C897.109,210.564 898.9,212.355 898.9,214.564 C898.9,216.774 897.109,218.564 894.9,218.564 z M894.9,224.564 C893.795,224.564 892.9,225.46 892.9,226.564 L892.9,250.564 C892.9,251.669 893.795,252.564 894.9,252.564 C896.004,252.564 896.9,251.669 896.9,250.564 L896.9,226.564 C896.9,225.46 896.004,224.564 894.9,224.564 z M922.9,212.564 L906.9,212.564 C905.795,212.564 904.9,213.46 904.9,214.564 C904.9,215.669 905.795,216.564 906.9,216.564 L922.9,216.564 C924.004,216.564 924.9,215.669 924.9,214.564 C924.9,213.46 924.004,212.564 922.9,212.564 z M882.9,212.564 L866.9,212.564 C865.795,212.564 864.9,213.46 864.9,214.564 C864.9,215.669 865.795,216.564 866.9,216.564 L882.9,216.564 C884.004,216.564 884.9,215.669 884.9,214.564 C884.9,213.46 884.004,212.564 882.9,212.564 z M894.9,176.564 C893.795,176.564 892.9,177.46 892.9,178.564 L892.9,202.564 C892.9,203.669 893.795,204.564 894.9,204.564 C896.004,204.564 896.9,203.669 896.9,202.564 L896.9,178.564 C896.9,177.46 896.004,176.564 894.9,176.564 z M903.767,221.086 C902.963,221.086 902.604,221.046 901.971,221.635 C901.19,222.416 901.19,223.683 901.971,224.464 L907.628,230.121 C908.409,230.902 909.675,230.902 910.456,230.121 C911.237,229.34 911.237,228.073 910.456,227.292 L904.799,221.635 C904.285,221.216 904.611,221.43 903.767,221.086 z M886.797,221.086 C885.993,221.086 885.633,221.046 885,221.635 L879.344,227.292 C878.562,228.073 878.562,229.34 879.344,230.121 C880.125,230.902 881.391,230.902 882.172,230.121 L887.829,224.464 C888.61,223.683 888.61,222.417 887.829,221.635 C887.315,221.216 887.64,221.43 886.797,221.086 z M909.424,198.459 C908.62,198.459 908.26,198.418 907.628,199.008 L901.971,204.665 C901.19,205.446 901.19,206.712 901.971,207.493 C902.752,208.274 904.018,208.274 904.799,207.493 L910.456,201.836 C911.237,201.055 911.237,199.789 910.456,199.008 C909.942,198.588 910.268,198.803 909.424,198.459 z M881.14,198.459 C880.336,198.459 879.976,198.418 879.344,199.008 C878.562,199.789 878.562,201.055 879.344,201.836 L885,207.493 C885.781,208.274 887.048,208.274 887.829,207.493 C888.61,206.712 888.61,205.446 887.829,204.665 L882.172,199.008 C881.658,198.588 881.983,198.803 881.14,198.459 z" fill="#299199"/>
    <path d="M165.987,722 C163.778,722 161.987,720.209 161.987,718 C161.987,715.791 163.778,714 165.987,714 C168.196,714 169.987,715.791 169.987,718 C169.987,720.209 168.196,722 165.987,722 z M163.987,690 L163.987,706 C163.987,707.105 164.883,708 165.987,708 C167.092,708 167.987,707.105 167.987,706 L167.987,690 C167.987,688.895 167.092,688 165.987,688 C164.883,688 163.987,688.895 163.987,690 z M163.987,730 L163.987,746 C163.987,747.105 164.883,748 165.987,748 C167.092,748 167.987,747.105 167.987,746 L167.987,730 C167.987,728.895 167.092,728 165.987,728 C164.883,728 163.987,728.895 163.987,730 z M155.658,716.887 C155.09,716.319 154.864,716.036 154,716.005 L146,716.005 C144.895,716.005 144,716.901 144,718.005 C144,719.11 144.895,720.005 146,720.005 L154,720.005 C155.105,720.005 156,719.11 156,718.005 C155.933,717.345 156.012,717.727 155.658,716.887 z M187.658,716.887 C187.09,716.319 186.864,716.036 186,716.005 L178,716.005 C176.895,716.005 176,716.901 176,718.005 C176,719.11 176.895,720.005 178,720.005 L186,720.005 C187.105,720.005 188,719.11 188,718.005 C187.933,717.345 188.012,717.727 187.658,716.887 z" fill="#299199"/>
    <path d="M821.987,962 C819.778,962 817.987,960.209 817.987,958 C817.987,955.791 819.778,954 821.987,954 C824.196,954 825.987,955.791 825.987,958 C825.987,960.209 824.196,962 821.987,962 z M819.987,930 L819.987,946 C819.987,947.105 820.883,948 821.987,948 C823.092,948 823.987,947.105 823.987,946 L823.987,930 C823.987,928.895 823.092,928 821.987,928 C820.883,928 819.987,928.895 819.987,930 z M819.987,970 L819.987,986 C819.987,987.105 820.883,988 821.987,988 C823.092,988 823.987,987.105 823.987,986 L823.987,970 C823.987,968.895 823.092,968 821.987,968 C820.883,968 819.987,968.895 819.987,970 z M811.658,956.887 C811.09,956.319 810.864,956.036 810,956.005 L802,956.005 C800.895,956.005 800,956.901 800,958.005 C800,959.11 800.895,960.005 802,960.005 L810,960.005 C811.105,960.005 812,959.11 812,958.005 C811.933,957.345 812.012,957.727 811.659,956.887 z M843.658,956.887 C843.09,956.319 842.864,956.036 842,956.005 L834,956.005 C832.895,956.005 832,956.901 832,958.005 C832,959.11 832.895,960.005 834,960.005 L842,960.005 C843.105,960.005 844,959.11 844,958.005 C843.933,957.345 844.012,957.727 843.658,956.887 z" fill="#299199"/>
    <path d="M773.987,354 C771.778,354 769.987,352.209 769.987,350 C769.987,347.791 771.778,346 773.987,346 C776.196,346 777.987,347.791 777.987,350 C777.987,352.209 776.196,354 773.987,354 z M771.987,322 L771.987,338 C771.987,339.105 772.883,340 773.987,340 C775.092,340 775.987,339.105 775.987,338 L775.987,322 C775.987,320.895 775.092,320 773.987,320 C772.883,320 771.987,320.895 771.987,322 z M771.987,362 L771.987,378 C771.987,379.105 772.883,380 773.987,380 C775.092,380 775.987,379.105 775.987,378 L775.987,362 C775.987,360.895 775.092,360 773.987,360 C772.883,360 771.987,360.895 771.987,362 z M763.658,348.887 C763.09,348.319 762.864,348.036 762,348.005 L754,348.005 C752.895,348.005 752,348.901 752,350.005 C752,351.11 752.895,352.005 754,352.005 L762,352.005 C763.105,352.005 764,351.11 764,350.005 C763.933,349.345 764.012,349.727 763.659,348.887 z M795.658,348.887 C795.09,348.319 794.864,348.036 794,348.005 L786,348.005 C784.895,348.005 784,348.901 784,350.005 C784,351.11 784.895,352.005 786,352.005 L794,352.005 C795.105,352.005 796,351.11 796,350.005 C795.933,349.345 796.012,349.727 795.658,348.887 z" fill="#299199"/>
    <path d="M168.637,481.837 C166.427,481.837 164.637,480.046 164.637,477.837 C164.637,475.628 166.427,473.837 168.637,473.837 C170.846,473.837 172.637,475.628 172.637,477.837 C172.637,480.046 170.846,481.837 168.637,481.837 z" fill="#299199"/>
    <path d="M130.229,548.634 C125.811,548.634 122.229,545.052 122.229,540.634 C122.229,536.216 125.811,532.634 130.229,532.634 C134.647,532.634 138.229,536.216 138.229,540.634 C138.229,545.052 134.647,548.634 130.229,548.634 z" fill="#299199"/>
    <path d="M224,792 C219.582,792 216,788.418 216,784 C216,779.582 219.582,776 224,776 C228.418,776 232,779.582 232,784 C232,788.418 228.418,792 224,792 z" fill="#299199"/>
    <path d="M320.825,72.786 C316.406,72.786 312.825,69.204 312.825,64.786 C312.825,60.368 316.406,56.786 320.825,56.786 C325.243,56.786 328.825,60.368 328.825,64.786 C328.825,69.204 325.243,72.786 320.825,72.786 z" fill="#299199"/>
    <path d="M944,456 C939.582,456 936,452.418 936,448 C936,443.582 939.582,440 944,440 C948.418,440 952,443.582 952,448 C952,452.418 948.418,456 944,456 z" fill="#299199"/>
    <path d="M800,640 C795.582,640 792,636.418 792,632 C792,627.582 795.582,624 800,624 C804.418,624 808,627.582 808,632 C808,636.418 804.418,640 800,640 z" fill="#299199"/>
    <path d="M428.5,237.5 C423.529,237.5 419.5,233.471 419.5,228.5 C419.5,223.529 423.529,219.5 428.5,219.5 C433.471,219.5 437.5,223.529 437.5,228.5 C437.5,233.471 433.471,237.5 428.5,237.5 z" fill-opacity="0" stroke="#2A9199" stroke-width="4"/>
    <path d="M287.247,941.086 C282.277,941.086 278.247,937.057 278.247,932.086 C278.247,927.116 282.277,923.086 287.247,923.086 C292.218,923.086 296.247,927.116 296.247,932.086 C296.247,937.057 292.218,941.086 287.247,941.086 z" fill-opacity="0" stroke="#2A9199" stroke-width="4"/>
    <path d="M61.858,153.967 C57.439,153.967 53.858,150.385 53.858,145.967 C53.858,141.548 57.439,137.967 61.858,137.967 C66.276,137.967 69.858,141.548 69.858,145.967 C69.858,150.385 66.276,153.967 61.858,153.967 z" fill="#299199"/>
    <path d="M364,816 C361.791,816 360,814.209 360,812 C360,809.791 361.791,808 364,808 C366.209,808 368,809.791 368,812 C368,814.209 366.209,816 364,816 z" fill="#299199"/>
    <path d="M596,864 C593.791,864 592,862.209 592,860 C592,857.791 593.791,856 596,856 C598.209,856 600,857.791 600,860 C600,862.209 598.209,864 596,864 z" fill="#299199"/>
    <path d="M501.903,951.824 C499.694,951.824 497.903,950.033 497.903,947.824 C497.903,945.615 499.694,943.824 501.903,943.824 C504.112,943.824 505.903,945.615 505.903,947.824 C505.903,950.033 504.112,951.824 501.903,951.824 z" fill="#299199"/>
    <path d="M652,912 C649.791,912 648,910.209 648,908 C648,905.791 649.791,904 652,904 C654.209,904 656,905.791 656,908 C656,910.209 654.209,912 652,912 z" fill="#299199"/>
    <path d="M485.762,904.159 C483.553,904.159 481.762,902.368 481.762,900.159 C481.762,897.949 483.553,896.159 485.762,896.159 C487.971,896.159 489.762,897.949 489.762,900.159 C489.762,902.368 487.971,904.159 485.762,904.159 z" fill="#299199"/>
    <path d="M44,824 C41.791,824 40,822.209 40,820 C40,817.791 41.791,816 44,816 C46.209,816 48,817.791 48,820 C48,822.209 46.209,824 44,824 z" fill="#299199"/>
    <path d="M92,952 C89.791,952 88,950.209 88,948 C88,945.791 89.791,944 92,944 C94.209,944 96,945.791 96,948 C96,950.209 94.209,952 92,952 z" fill="#299199"/>
    <path d="M116,984 C113.791,984 112,982.209 112,980 C112,977.791 113.791,976 116,976 C118.209,976 120,977.791 120,980 C120,982.209 118.209,984 116,984 z" fill="#299199"/>
    <path d="M740,680 C737.791,680 736,678.209 736,676 C736,673.791 737.791,672 740,672 C742.209,672 744,673.791 744,676 C744,678.209 742.209,680 740,680 z" fill="#299199"/>
    <path d="M524,512 C521.791,512 520,510.209 520,508 C520,505.791 521.791,504 524,504 C526.209,504 528,505.791 528,508 C528,510.209 526.209,512 524,512 z" fill="#299199"/>
    <path d="M999.189,794.291 C996.98,794.291 995.189,792.5 995.189,790.291 C995.189,788.082 996.98,786.291 999.189,786.291 C1001.398,786.291 1003.189,788.082 1003.189,790.291 C1003.189,792.5 1001.398,794.291 999.189,794.291 z" fill="#299199"/>
    <path d="M844,496 C841.791,496 840,494.209 840,492 C840,489.791 841.791,488 844,488 C846.209,488 848,489.791 848,492 C848,494.209 846.209,496 844,496 z" fill="#299199"/>
    <path d="M332,392 C329.791,392 328,390.209 328,388 C328,385.791 329.791,384 332,384 C334.209,384 336,385.791 336,388 C336,390.209 334.209,392 332,392 z" fill="#299199"/>
    <path d="M926,680 C923.791,680 922,678.209 922,676 C922,673.791 923.791,672 926,672 C928.209,672 930,673.791 930,676 C930,678.209 928.209,680 926,680 z" fill="#299199"/>
    <path d="M460,176 C457.791,176 456,174.209 456,172 C456,169.791 457.791,168 460,168 C462.209,168 464,169.791 464,172 C464,174.209 462.209,176 460,176 z" fill="#299199"/>
    <path d="M388,344 C385.791,344 384,342.209 384,340 C384,337.791 385.791,336 388,336 C390.209,336 392,337.791 392,340 C392,342.209 390.209,344 388,344 z" fill="#299199"/>
    <path d="M460,736 C457.791,736 456,734.209 456,732 C456,729.791 457.791,728 460,728 C462.209,728 464,729.791 464,732 C464,734.209 462.209,736 460,736 z" fill="#299199"/>
    <path d="M282.969,556.626 C280.76,556.626 278.969,554.835 278.969,552.626 C278.969,550.416 280.76,548.626 282.969,548.626 C285.178,548.626 286.969,550.416 286.969,552.626 C286.969,554.835 285.178,556.626 282.969,556.626 z" fill="#299199"/>
    <path d="M604,664 C601.791,664 600,662.209 600,660 C600,657.791 601.791,656 604,656 C606.209,656 608,657.791 608,660 C608,662.209 606.209,664 604,664 z" fill="#299199"/>
    <path d="M396,624 C393.791,624 392,622.209 392,620 C392,617.791 393.791,616 396,616 C398.209,616 400,617.791 400,620 C400,622.209 398.209,624 396,624 z" fill="#299199"/>
    <path d="M364,680 C361.791,680 360,678.209 360,676 C360,673.791 361.791,672 364,672 C366.209,672 368,673.791 368,676 C368,678.209 366.209,680 364,680 z" fill="#299199"/>
    <path d="M906.186,572.845 C903.977,572.845 902.186,571.055 902.186,568.845 C902.186,566.636 903.977,564.845 906.186,564.845 C908.395,564.845 910.186,566.636 910.186,568.845 C910.186,571.055 908.395,572.845 906.186,572.845 z" fill="#299199"/>
    <path d="M612,376 C609.791,376 608,374.209 608,372 C608,369.791 609.791,368 612,368 C614.209,368 616,369.791 616,372 C616,374.209 614.209,376 612,376 z" fill="#299199"/>
    <path d="M612,216 C609.791,216 608,214.209 608,212 C608,209.791 609.791,208 612,208 C614.209,208 616,209.791 616,212 C616,214.209 614.209,216 612,216 z" fill="#299199"/>
    <path d="M579.066,71.718 C576.857,71.718 575.066,69.927 575.066,67.718 C575.066,65.509 576.857,63.718 579.066,63.718 C581.275,63.718 583.066,65.509 583.066,67.718 C583.066,69.927 581.275,71.718 579.066,71.718 z" fill="#299199"/>
    <path d="M916,88 C913.791,88 912,86.209 912,84 C912,81.791 913.791,80 916,80 C918.209,80 920,81.791 920,84 C920,86.209 918.209,88 916,88 z" fill="#299199"/>
    <path d="M788,200 C785.791,200 784,198.209 784,196 C784,193.791 785.791,192 788,192 C790.209,192 792,193.791 792,196 C792,198.209 790.209,200 788,200 z" fill="#299199"/>
    <path d="M748,168 C745.791,168 744,166.209 744,164 C744,161.791 745.791,160 748,160 C750.209,160 752,161.791 752,164 C752,166.209 750.209,168 748,168 z" fill="#299199"/>
    <path d="M876,880 C873.791,880 872,878.209 872,876 C872,873.791 873.791,872 876,872 C878.209,872 880,873.791 880,876 C880,878.209 878.209,880 876,880 z" fill="#299199"/>
    <path d="M53.955,351.194 C51.745,351.194 49.955,349.403 49.955,347.194 C49.955,344.985 51.745,343.194 53.955,343.194 C56.164,343.194 57.955,344.985 57.955,347.194 C57.955,349.403 56.164,351.194 53.955,351.194 z" fill="#299199"/>
    <path d="M136.715,274.345 C134.506,274.345 132.715,272.554 132.715,270.345 C132.715,268.136 134.506,266.345 136.715,266.345 C138.924,266.345 140.715,268.136 140.715,270.345 C140.715,272.554 138.924,274.345 136.715,274.345 z" fill="#299199"/>
    <path d="M244,24 C241.791,24 240,22.209 240,20 C240,17.791 241.791,16 244,16 C246.209,16 248,17.791 248,20 C248,22.209 246.209,24 244,24 z" fill="#299199"/>
  </g>
  <g id="jupiter">
    <path d="M736.5,840.5 C709.99,840.5 688.5,819.01 688.5,792.5 C688.5,765.99 709.99,744.5 736.5,744.5 C763.01,744.5 784.5,765.99 784.5,792.5 C784.5,819.01 763.01,840.5 736.5,840.5 z" fill-opacity="0" stroke="#299199" stroke-width="4"/>
    <g>
      <path d="M745.5,822.5 C740.529,822.5 736.5,818.471 736.5,813.5 C736.5,808.529 740.529,804.5 745.5,804.5 C750.471,804.5 754.5,808.529 754.5,813.5 C754.5,818.471 750.471,822.5 745.5,822.5 z" fill="#299199"/>
      <path d="M745.5,822.5 C740.529,822.5 736.5,818.471 736.5,813.5 C736.5,808.529 740.529,804.5 745.5,804.5 C750.471,804.5 754.5,808.529 754.5,813.5 C754.5,818.471 750.471,822.5 745.5,822.5 z" fill-opacity="0" stroke="#299199" stroke-width="4"/>
    </g>
    <path d="M691.451,804.5 L712.5,804.5" fill-opacity="0" stroke="#299199" stroke-width="4" stroke-linecap="round"/>
    <path d="M724.5,804.5 L730.5,804.5" fill-opacity="0" stroke="#299199" stroke-width="4" stroke-linecap="round"/>
    <path d="M756.243,771.5 L750.243,771.5" fill-opacity="0" stroke="#299199" stroke-width="4" stroke-linecap="round"/>
    <path d="M766.5,762.5 L772.5,762.5" fill-opacity="0" stroke="#299199" stroke-width="4" stroke-linecap="round"/>
    <path d="M694.5,780.5 L691.397,780.5" fill-opacity="0" stroke="#299199" stroke-width="4" stroke-linecap="round"/>
    <path d="M699.342,822.5 L730.5,822.5" fill-opacity="0" stroke="#299199" stroke-width="4" stroke-linecap="round"/>
    <path d="M760.5,804.5 L781.658,804.5" fill-opacity="0" stroke="#299199" stroke-width="4" stroke-linecap="round"/>
    <path d="M760.5,780.5 L781.343,780.5" fill-opacity="0" stroke="#299199" stroke-width="4" stroke-linecap="round"/>
    <path d="M760.5,822.5 L772.5,822.5" fill-opacity="0" stroke="#299199" stroke-width="4" stroke-linecap="round"/>
    <path d="M766.621,813.5 L778.621,813.5" fill-opacity="0" stroke="#299199" stroke-width="4" stroke-linecap="round"/>
    <path d="M717.468,813.5 L724.889,813.5" fill-opacity="0" stroke="#299199" stroke-width="4" stroke-linecap="round"/>
    <path d="M693.925,813.5 L705.925,813.5" fill-opacity="0" stroke="#299199" stroke-width="4" stroke-linecap="round"/>
    <path d="M779.414,771.5 L767.414,771.5" fill-opacity="0" stroke="#299199" stroke-width="4" stroke-linecap="round"/>
    <path d="M700.5,762.5 L718.5,762.5" fill-opacity="0" stroke="#299199" stroke-width="4" stroke-linecap="round"/>
    <path d="M730.5,762.5 L754.5,762.5" fill-opacity="0" stroke="#299199" stroke-width="4" stroke-linecap="round"/>
    <path d="M706.5,780.5 L748.5,780.5" fill-opacity="0" stroke="#299199" stroke-width="4" stroke-linecap="round"/>
    <path d="M732.199,771.5 L695.394,771.5" fill-opacity="0" stroke="#299199" stroke-width="4" stroke-linecap="round"/>
  </g>
  <g id="saturn">
    <path d="M235.893,371.898 C221.834,385.957 199.04,385.957 184.982,371.898 C170.923,357.84 170.923,335.046 184.982,320.987 C199.04,306.928 221.834,306.928 235.893,320.987 C249.952,335.046 249.952,357.84 235.893,371.898 z" fill-opacity="0" stroke="#299199" stroke-width="4"/>
    <path d="M197.71,359.171 L261.349,295.531" fill-opacity="0" stroke="#299199" stroke-width="4" stroke-linecap="round"/>
    <path d="M159.526,397.354 L189.224,367.656" fill-opacity="0" stroke="#299199" stroke-width="4" stroke-linecap="round"/>
    <path d="M175.465,355.96 L219.954,311.47" fill-opacity="0" stroke="#299199" stroke-width="4"/>
    <path d="M227.408,346.443 L242.857,330.994" fill-opacity="0" stroke="#299199" stroke-width="4" stroke-linecap="round"/>
    <path d="M195.373,378.478 L218.923,354.928" fill-opacity="0" stroke="#299199" stroke-width="4" stroke-linecap="round"/>
    <g>
      <path d="M175.169,339.221 C175.169,339.221 176.687,329.477 184.982,320.987 C192.896,312.886 203.424,311.126 203.424,311.126 z" fill="#2A9199"/>
      <path d="M175.169,339.221 C175.169,339.221 176.687,329.477 184.982,320.987 C192.896,312.886 203.424,311.126 203.424,311.126 z" fill-opacity="0" stroke="#299199" stroke-width="4" stroke-miterlimit="2"/>
    </g>
    <g>
      <path d="M217.702,381.755 C217.702,381.755 227.411,380.202 235.901,371.906 C244.001,363.991 245.798,353.501 245.798,353.501 z" fill="#2A9199"/>
      <path d="M217.702,381.755 C217.702,381.755 227.411,380.202 235.901,371.906 C244.001,363.991 245.798,353.501 245.798,353.501 z" fill-opacity="0" stroke="#299199" stroke-width="4" stroke-miterlimit="1"/>
    </g>
  </g>
</svg>
