<?xml version="1.0" encoding="UTF-8"?>
<!DOCTYPE svg PUBLIC "-//W3C//DTD SVG 1.1//EN" "http://www.w3.org/Graphics/SVG/1.1/DTD/svg11.dtd">
<svg version="1.1" xmlns="http://www.w3.org/2000/svg" xmlns:xlink="http://www.w3.org/1999/xlink" x="0" y="0" width="768" height="880" viewBox="0, 0, 768, 880">
  <g id="Layer_1" transform="translate(-128, -72)">
    <path d="M511.998,72 L895.997,291.888 L511.999,512 L128,291.888 z" fill="#299199"/>
    <path d="M128,732.112 L128,291.888 L512.001,511.997 L511.999,952 z" fill="#CD366F"/>
    <path d="M896,732.112 L896,291.888 L511.999,511.997 L512.001,952 z" fill="#613F92"/>
    <path class="monogram" d="M512.007,145.521 L832.006,328.76 L832.006,476.179 L639.998,586.45 L640.014,805.355 L511.999,878.644 L192,695.404 L192,328.925 L511.999,145.686 M512.007,292.562 L512.01,292.614 L320.007,402.685 L320.007,621.673 L512.007,731.628 L512.007,512.664 L704.006,402.506 L512.007,292.562 z" fill="rgba(255, 255, 255, 0.6)" />
    <path d="M512.001,511.997 L128,732.112 L512.001,952 L512.001,511.997 z" fill="#000000" fill-opacity="0.08"/>
    <path d="M511.999,512.485 L511.998,72 L128,291.888 L511.999,512.485 z" fill="#000000" fill-opacity="0.08"/>
    <path d="M896,291.888 L896,732.112 L512.007,512.664 L896,291.888 z" fill="#000000" fill-opacity="0.08"/>
  </g>
</svg>
